# xmcd
#
# Track frame offsets:
#	150
#	10376
#	29078
#	53908
#	73277
#	92890
#	107516
#	122839
#	141886
#	155681
#	174465
#
# Disc length: 2577 seconds
#
# Revision: 0
# Processed by: cddbd v1.4PL0 Copyright (c) Steve Scherf et al.
# Submitted via: EasyCDDAExtractor 4.5.0.2
#
DISCID=9f0a0f0b
DTITLE=Temerarios - En concierto Vol. 2
DYEAR=1997
DGENRE=country
TTITLE0=Introducción
TTITLE1=Mi vida eres tu
TTITLE2=Dimelo
TTITLE3=Acepta mi error
TTITLE4=La tricionera
TTITLE5=Te quiero
TTITLE6=Una lagrima mas
TTITLE7=Faltas tu
TTITLE8=Soy un solitario
TTITLE9=Una miradita
TTITLE10=Ya me voy para siempre
EXTD=
EXTT0=
EXTT1=
EXTT2=
EXTT3=
EXTT4=
EXTT5=
EXTT6=
EXTT7=
EXTT8=
EXTT9=
EXTT10=
PLAYORDER=
